HIERARCHY
ROOT Hips
{
  OFFSET 56.7865 84.163 -7.17707
  CHANNELS 6 Xposition Yposition Zposition Zrotation Xrotation Yrotation
  JOINT spine
  {
    OFFSET 0 5.95438 0.342407
    CHANNELS 3 Zrotation Xrotation Yrotation
    JOINT spine1
    {
      OFFSET 0 8.85602 0
      CHANNELS 3 Zrotation Xrotation Yrotation
      JOINT spine2
      {
        OFFSET 0 8.48567 0
        CHANNELS 3 Zrotation Xrotation Yrotation
        JOINT Neck
        {
          OFFSET 0 21.7863 1.0387
          CHANNELS 3 Zrotation Xrotation Yrotation
          JOINT Head
          {
            OFFSET 0 6.5822 0
            CHANNELS 3 Zrotation Xrotation Yrotation
            End Site
            {
              OFFSET 0 15.9326 -5.25436
            }
          }
        }
        JOINT RightShoulder
        {
          OFFSET -3.57307 9.16386 -0.497525
          CHANNELS 3 Zrotation Xrotation Yrotation
          JOINT RightArm
          {
            OFFSET 0 12.0192 0
            CHANNELS 3 Zrotation Xrotation Yrotation
            JOINT RightArmRoll
            {
              OFFSET 0 6.06755 0
              CHANNELS 3 Zrotation Xrotation Yrotation
              JOINT RightForeArm
              {
                OFFSET 0 17.6726 0
                CHANNELS 3 Zrotation Xrotation Yrotation
                JOINT RightForeArmRoll
                {
                  OFFSET 0 6.80873 0
                  CHANNELS 3 Zrotation Xrotation Yrotation
                  JOINT RightHand
                  {
                    OFFSET 0 13.6636 0
                    CHANNELS 3 Zrotation Xrotation Yrotation
                    End Site
                    {
                      OFFSET 0 0 0
                    }
                  }
                }
              }
            }
          }
        }
        JOINT LeftShoulder
        {
          OFFSET 3.57307 9.16386 -0.497525
          CHANNELS 3 Zrotation Xrotation Yrotation
          JOINT LeftArm
          {
            OFFSET 0 12.0192 0
            CHANNELS 3 Zrotation Xrotation Yrotation
            JOINT LeftArmRoll
            {
              OFFSET 0 6.06755 0
              CHANNELS 3 Zrotation Xrotation Yrotation
              JOINT LeftForeArm
              {
                OFFSET 0 17.6726 0
                CHANNELS 3 Zrotation Xrotation Yrotation
                JOINT LeftForeArmRoll
                {
                  OFFSET 0 6.80873 0
                  CHANNELS 3 Zrotation Xrotation Yrotation
                  JOINT LeftHand
                  {
                    OFFSET 0 13.6636 0
                    CHANNELS 3 Zrotation Xrotation Yrotation
                    End Site
                    {
                      OFFSET 0 0 0
                    }
                  }
                }
              }
            }
          }
        }
      }
    }
  }
  JOINT RightUpLeg
  {
    OFFSET -5.27774 -0.967797 -0.811858
    CHANNELS 3 Zrotation Xrotation Yrotation
    JOINT RightUpLegRoll
    {
      OFFSET 0 16.0214 0
      CHANNELS 3 Zrotation Xrotation Yrotation
      JOINT RightLeg
      {
        OFFSET 0 -19.8401 0
        CHANNELS 3 Zrotation Xrotation Yrotation
        JOINT RightLegRoll
        {
          OFFSET 0 19.905 0
          CHANNELS 3 Zrotation Xrotation Yrotation
          JOINT RightFoot
          {
            OFFSET 0 16.5675 0
            CHANNELS 3 Zrotation Xrotation Yrotation
            JOINT RightToeBase
            {
              OFFSET 0 13.8496 0
              CHANNELS 3 Zrotation Xrotation Yrotation
              End Site
              {
                OFFSET 0.00587034 6.70728 -0.773117
              }
            }
          }
        }
      }
    }
  }
  JOINT LeftUpLeg
  {
    OFFSET 5.27774 -0.967797 -0.811858
    CHANNELS 3 Zrotation Xrotation Yrotation
    JOINT LeftUpLegRoll
    {
      OFFSET 0 16.0215 0
      CHANNELS 3 Zrotation Xrotation Yrotation
      JOINT LeftLeg
      {
        OFFSET 0 19.84 0
        CHANNELS 3 Zrotation Xrotation Yrotation
        JOINT LeftLegRoll
        {
          OFFSET 0 20.089 0
          CHANNELS 3 Zrotation Xrotation Yrotation
          JOINT LeftFoot
          {
            OFFSET 0 16.3835 0
            CHANNELS 3 Zrotation Xrotation Yrotation
            JOINT LeftToeBase
            {
              OFFSET 0 13.8496 0
              CHANNELS 3 Zrotation Xrotation Yrotation
              End Site
              {
                OFFSET -0.0263083 6.70727 -0.773117
              }
            }
          }
        }
      }
    }
  }
}
MOTION
Frames: 4
Frame Time: 0.00208333
54.8411 83.893 -4.0079 0.681081 -5.71324 -0.0991045 0.0550148 0.0860277 0.105254 0.100642 4.16262 0.204149 0.0983347 5.80771 0.20597 -6.82835 17.3855 -2.01385 9.59976 -3.51763 -3.49273 71.8733 -0.584968 -1.73178 110.855 19.8552 -12.2251 4.17673e-006 3.45775e-006 -2.04995e-006 -3.63055 -0.0212253 -1.99233 -1.17844e-007 2.04457e-006 -3.01161 8.03011 -4.95137 0.697625 -63.1322 -1.32796 1.20894 -120.685 19.1242 20.4605 -5.56597e-015 0 -3.18055e-015 3.63994 -0.0249467 1.99236 -2.16638e-005 2.85027e-007 3.0116 -8.03011 -4.95137 -0.697636 178.259 1.43236 4.17664 180 7.01551e-015 178.939 176.298 12.2549 -179.967 2.79087e-006 2.9299e-007 0.183525 -20.2199 69.9108 21.2712 8.1379 25.2326 -3.48833 177.561 -0.143593 1.73827 4.54188e-006 -4.6773e-006 -1.11428 -1.92304 -12.2959 0.162606 -6.41127e-007 1.71655e-006 -0.210829 20.0054 69.6999 -21.0608 -8.13824 25.2326 3.48848 
54.8465 83.8909 -4.00845 0.669611 -5.64307 -0.097626 0.0561136 0.0828395 0.105256 0.10346 4.15714 0.203949 0.101158 5.80222 0.205697 -6.78363 17.2289 -2.04557 9.54646 -3.5052 -3.50769 71.87 -0.587618 -1.73269 110.884 19.8605 -12.2541 4.17673e-006 3.45775e-006 -2.04995e-006 -3.63055 -0.0212253 -1.99233 -1.17844e-007 2.04457e-006 -3.01161 8.03011 -4.95137 0.697625 -63.0911 -1.3282 1.20478 -120.739 19.1162 20.5113 -1.19271e-014 -3.18055e-015 -6.36111e-015 3.63994 -0.0249467 1.99236 -2.16638e-005 2.85027e-007 3.0116 -8.03011 -4.95137 -0.697636 178.287 1.50664 4.14596 180 7.01551e-015 178.94 176.312 12.2523 -179.969 2.79087e-006 2.9299e-007 0.183634 -20.2179 69.9088 21.269 8.1379 25.2326 -3.48833 177.575 -0.0553492 1.73856 4.54188e-006 -4.6773e-006 -1.11335 -1.92372 -12.3167 0.162591 -6.41127e-007 1.71655e-006 -0.210785 20.0003 69.6948 -21.0555 -8.13824 25.2326 3.48848 
54.8344 83.8881 -4.01215 0.658214 -5.57349 -0.0960328 0.0571763 0.0796497 0.105258 0.106227 4.15169 0.20375 0.10393 5.79677 0.205428 -6.737 17.0723 -2.07773 9.49024 -3.49195 -3.52277 71.8666 -0.590659 -1.73379 110.913 19.8661 -12.2835 4.17673e-006 3.45775e-006 -2.04995e-006 -3.63055 -0.0212253 -1.99233 -1.17844e-007 2.04457e-006 -3.01161 8.03011 -4.95137 0.697625 -63.0491 -1.32819 1.20037 -120.795 19.1081 20.5628 -1.66979e-014 4.77083e-015 -9.54166e-015 3.63994 -0.0249467 1.99236 -2.16638e-005 2.85027e-007 3.0116 -8.03011 -4.95137 -0.697636 178.315 1.58029 4.11579 180 7.01551e-015 178.94 176.325 12.2495 -179.971 2.79087e-006 2.9299e-007 0.183729 -20.2159 69.907 21.2669 8.1379 25.2326 -3.48833 177.589 0.0319167 1.73868 4.54188e-006 -4.6773e-006 -1.11244 -1.92462 -12.3368 0.162522 -6.41127e-007 1.71655e-006 -0.21072 19.9952 69.6897 -21.0502 -8.13824 25.2326 3.48848 
54.8258 83.8882 -4.01559 0.646866 -5.5043 -0.0943595 0.0582136 0.0764586 0.105259 0.108958 4.14625 0.20355 0.106667 5.79133 0.205162 -6.68909 16.9157 -2.11019 9.43199 -3.47812 -3.53793 71.8633 -0.593973 -1.73502 110.942 19.8721 -12.3132 4.17673e-006 3.45775e-006 -2.04995e-006 -3.63055 -0.0212253 -1.99233 -1.17844e-007 2.04457e-006 -3.01161 8.03011 -4.95137 0.697625 -63.0064 -1.328 1.19579 -120.851 19.1 20.6149 2.38542e-015 -6.36111e-015 -6.36111e-015 3.63994 -0.0249467 1.99236 -2.16638e-005 2.85027e-007 3.0116 -8.03011 -4.95137 -0.697636 178.342 1.65349 4.086 180 7.01551e-015 178.941 176.338 12.2466 -179.974 2.79087e-006 2.9299e-007 0.183813 -20.2139 69.9051 21.2649 8.1379 25.2326 -3.48833 177.603 0.118498 1.73868 4.54188e-006 -4.6773e-006 -1.11155 -1.92566 -12.3565 0.162416 -6.41127e-007 1.71655e-006 -0.210639 19.9901 69.6846 -21.0448 -8.13824 25.2326 3.48848 
